<?xml version="1.0" encoding="UTF-8" standalone="no"?>
<!-- Created with Inkscape (http://www.inkscape.org/) -->

<svg
   version="1.1"
   id="svg1"
   width="880"
   height="880"
   viewBox="0 0 880 880"
   sodipodi:docname="sea-underwater.svg"
   inkscape:version="1.3.2 (091e20e, 2023-11-25, custom)"
   xmlns:inkscape="http://www.inkscape.org/namespaces/inkscape"
   xmlns:sodipodi="http://sodipodi.sourceforge.net/DTD/sodipodi-0.dtd"
   xmlns="http://www.w3.org/2000/svg"
   xmlns:svg="http://www.w3.org/2000/svg">
  <defs
     id="defs1">
    <clipPath
       clipPathUnits="userSpaceOnUse"
       id="clipPath4">
      <path
         d="M 0,660 H 660 V 0 H 0 Z"
         transform="translate(-0.70260002,-530.76811)"
         id="path4" />
    </clipPath>
    <clipPath
       clipPathUnits="userSpaceOnUse"
       id="clipPath6">
      <path
         d="M 0,660 H 660 V 0 H 0 Z"
         transform="translate(-661.44431,-344.45461)"
         id="path6" />
    </clipPath>
    <clipPath
       clipPathUnits="userSpaceOnUse"
       id="clipPath8">
      <path
         d="M 0,660 H 660 V 0 H 0 Z"
         transform="translate(-661.44431,-267.42291)"
         id="path8" />
    </clipPath>
    <clipPath
       clipPathUnits="userSpaceOnUse"
       id="clipPath10">
      <path
         d="M 0,660 H 660 V 0 H 0 Z"
         transform="translate(-0.70260002,-34.588898)"
         id="path10" />
    </clipPath>
    <clipPath
       clipPathUnits="userSpaceOnUse"
       id="clipPath12">
      <path
         d="M 0,660 H 660 V 0 H 0 Z"
         transform="translate(-436.30081,-76.917002)"
         id="path12" />
    </clipPath>
    <clipPath
       clipPathUnits="userSpaceOnUse"
       id="clipPath14">
      <path
         d="M 0,660 H 660 V 0 H 0 Z"
         transform="translate(-661.44431,-116.97951)"
         id="path14" />
    </clipPath>
    <clipPath
       clipPathUnits="userSpaceOnUse"
       id="clipPath16">
      <path
         d="M 0,660 H 660 V 0 H 0 Z"
         transform="translate(-661.44431,-65.672904)"
         id="path16" />
    </clipPath>
    <clipPath
       clipPathUnits="userSpaceOnUse"
       id="clipPath18">
      <path
         d="M 0,660 H 660 V 0 H 0 Z"
         transform="translate(-475.05571,-84.3652)"
         id="path18" />
    </clipPath>
    <clipPath
       clipPathUnits="userSpaceOnUse"
       id="clipPath20">
      <path
         d="M 0,660 H 660 V 0 H 0 Z"
         transform="translate(-372.16021,-30.295898)"
         id="path20" />
    </clipPath>
    <clipPath
       clipPathUnits="userSpaceOnUse"
       id="clipPath22">
      <path
         d="M 0,660 H 660 V 0 H 0 Z"
         transform="translate(-528.57322,-37.469701)"
         id="path22" />
    </clipPath>
    <clipPath
       clipPathUnits="userSpaceOnUse"
       id="clipPath24">
      <path
         d="M 0,660 H 660 V 0 H 0 Z"
         transform="translate(-156.83061,-31.950203)"
         id="path24" />
    </clipPath>
    <clipPath
       clipPathUnits="userSpaceOnUse"
       id="clipPath26">
      <path
         d="M 0,660 H 660 V 0 H 0 Z"
         transform="translate(-162.8823,-32.499998)"
         id="path26" />
    </clipPath>
    <clipPath
       clipPathUnits="userSpaceOnUse"
       id="clipPath28">
      <path
         d="M 0,660 H 660 V 0 H 0 Z"
         transform="translate(-174.9385,-33.268598)"
         id="path28" />
    </clipPath>
    <clipPath
       clipPathUnits="userSpaceOnUse"
       id="clipPath30">
      <path
         d="M 0,660 H 660 V 0 H 0 Z"
         transform="translate(-41.683601,-34.709003)"
         id="path30" />
    </clipPath>
    <clipPath
       clipPathUnits="userSpaceOnUse"
       id="clipPath32">
      <path
         d="M 0,660 H 660 V 0 H 0 Z"
         transform="translate(-516.97361,-30.982403)"
         id="path32" />
    </clipPath>
    <clipPath
       clipPathUnits="userSpaceOnUse"
       id="clipPath34">
      <path
         d="M 0,660 H 660 V 0 H 0 Z"
         transform="translate(-510.90331,-25.464803)"
         id="path34" />
    </clipPath>
    <clipPath
       clipPathUnits="userSpaceOnUse"
       id="clipPath36">
      <path
         d="M 0,660 H 660 V 0 H 0 Z"
         transform="translate(-515.05571,-33.189503)"
         id="path36" />
    </clipPath>
    <clipPath
       clipPathUnits="userSpaceOnUse"
       id="clipPath38">
      <path
         d="M 0,660 H 660 V 0 H 0 Z"
         transform="translate(-161.9575,-40.227504)"
         id="path38" />
    </clipPath>
    <clipPath
       clipPathUnits="userSpaceOnUse"
       id="clipPath40">
      <path
         d="M 0,660 H 660 V 0 H 0 Z"
         transform="translate(-210.3706,-95.123005)"
         id="path40" />
    </clipPath>
    <clipPath
       clipPathUnits="userSpaceOnUse"
       id="clipPath42">
      <path
         d="M 0,660 H 660 V 0 H 0 Z"
         transform="translate(-297.66801,-64.013702)"
         id="path42" />
    </clipPath>
    <clipPath
       clipPathUnits="userSpaceOnUse"
       id="clipPath44">
      <path
         d="M 0,660 H 660 V 0 H 0 Z"
         transform="translate(-578.60161,-80.375005)"
         id="path44" />
    </clipPath>
    <clipPath
       clipPathUnits="userSpaceOnUse"
       id="clipPath46">
      <path
         d="M 0,660 H 660 V 0 H 0 Z"
         transform="translate(-125.1465,-471.25491)"
         id="path46" />
    </clipPath>
    <clipPath
       clipPathUnits="userSpaceOnUse"
       id="clipPath48">
      <path
         d="M 0,660 H 660 V 0 H 0 Z"
         transform="translate(-148.85841,-331.25781)"
         id="path48" />
    </clipPath>
    <clipPath
       clipPathUnits="userSpaceOnUse"
       id="clipPath50">
      <path
         d="M 0,660 H 660 V 0 H 0 Z"
         transform="translate(-383.88961,-200.7754)"
         id="path50" />
    </clipPath>
    <clipPath
       clipPathUnits="userSpaceOnUse"
       id="clipPath52">
      <path
         d="M 0,660 H 660 V 0 H 0 Z"
         transform="translate(-62.242702,-347.32421)"
         id="path52" />
    </clipPath>
    <clipPath
       clipPathUnits="userSpaceOnUse"
       id="clipPath54">
      <path
         d="M 0,660 H 660 V 0 H 0 Z"
         transform="translate(-577.42192,-308.42091)"
         id="path54" />
    </clipPath>
    <clipPath
       clipPathUnits="userSpaceOnUse"
       id="clipPath56">
      <path
         d="M 0,660 H 660 V 0 H 0 Z"
         transform="translate(-574.25491,-305.54301)"
         id="path56" />
    </clipPath>
    <clipPath
       clipPathUnits="userSpaceOnUse"
       id="clipPath58">
      <path
         d="M 0,660 H 660 V 0 H 0 Z"
         transform="translate(-576.42091,-309.57321)"
         id="path58" />
    </clipPath>
    <clipPath
       clipPathUnits="userSpaceOnUse"
       id="clipPath60">
      <path
         d="M 0,660 H 660 V 0 H 0 Z"
         transform="translate(-44.282201,-91.670905)"
         id="path60" />
    </clipPath>
  </defs>
  <sodipodi:namedview
     id="namedview1"
     pagecolor="#ffffff"
     bordercolor="#000000"
     borderopacity="0.25"
     inkscape:showpageshadow="2"
     inkscape:pageopacity="0.0"
     inkscape:pagecheckerboard="0"
     inkscape:deskcolor="#d1d1d1"
     inkscape:zoom="0.67272727"
     inkscape:cx="439.25676"
     inkscape:cy="440"
     inkscape:window-width="1440"
     inkscape:window-height="830"
     inkscape:window-x="-6"
     inkscape:window-y="-6"
     inkscape:window-maximized="1"
     inkscape:current-layer="g1">
    <inkscape:page
       x="0"
       y="0"
       inkscape:label="1"
       id="page1"
       width="880"
       height="880"
       margin="0 0 0.38666666 0.93678802"
       bleed="0" />
  </sodipodi:namedview>
  <g
     id="g1"
     inkscape:groupmode="layer"
     inkscape:label="1">
    <g
       id="group-MC0">
      <path
         id="path2"
         d="M 0.703,0 H 660 V 659.71 H 0.703 Z"
         style="fill:#54c6c8;fill-opacity:1;fill-rule:nonzero;stroke:none"
         transform="matrix(1.3333333,0,0,-1.3333333,0,880)" />
      <path
         id="path3"
         d="m 0,0 c 153.542,20.087 171.004,-35.242 377.078,-35.242 156.454,0 105.837,109.085 38.271,111.636 C 295.878,80.904 217.826,40.297 149.58,58.456 59.242,82.492 23.033,87.219 0,85.393 Z m 660.742,30.738 v -92.044 c -74.148,-7.787 -76.67,-42.702 -138.075,-35.728 -180.485,20.496 32.824,62.297 44.199,80.076 19.233,30.061 54.734,43.473 93.876,47.696"
         style="fill:#61cace;fill-opacity:1;fill-rule:evenodd;stroke:none"
         transform="matrix(1.3333333,0,0,-1.3333333,0.9368,172.3092)"
         clip-path="url(#clipPath4)" />
      <path
         id="path5"
         d="M 0,0 V -345.487 H -660.742 V 75.412 c 47.809,-4.233 74.256,-13.09 158.552,-46.03 129.104,-50.445 289.908,53.973 399.664,-4.129 C -67.459,6.69 -32.74,2.087 0,0"
         style="fill:#45b3b8;fill-opacity:1;fill-rule:evenodd;stroke:none"
         transform="matrix(1.3333333,0,0,-1.3333333,881.92573,420.7272)"
         clip-path="url(#clipPath6)" />
      <path
         id="path7"
         d="M 0,0 V -268.455 H -660.742 V 2.044 c 55.337,-23.68 129.183,-55.213 185.917,-19.521 47.293,29.754 49.236,13.497 100.155,10.418 81.111,-4.902 103.906,-23.224 181.748,17.986 56.66,29.995 96.193,22.963 156.288,2.693 C -24.206,9.429 -12.188,4.834 0,0"
         style="fill:#3a9aa3;fill-opacity:1;fill-rule:evenodd;stroke:none"
         transform="matrix(1.3333333,0,0,-1.3333333,881.92573,523.43613)"
         clip-path="url(#clipPath8)" />
      <path
         id="path9"
         d="m 0,0 c 76.731,-4.152 163.783,7.019 204.802,7.019 135.464,0 90.831,58.526 47.793,74.783 l -4.095,1.633 -3.969,1.664 c -76.714,32.191 -30.272,37.679 -39.055,52.528 -2.39,4.041 -32.187,11.052 -42.683,16.661 -20.47,10.939 -26.611,19.148 -19.975,39.789 2.656,10.668 4.063,17.849 0.19,28.552 -9.616,26.58 -77.567,71.238 -97.391,121.706 -12.975,33.03 0.577,64.245 -36.025,47.364 C 6.357,390.206 3.166,388.956 0,387.91 Z M 660.742,393.831 V 18.85 c -35.187,-0.136 -79.23,3.617 -130.868,3.617 -246.533,0 -147.707,97.003 -135.471,99.404 86.247,16.923 46.73,48.978 86.162,62.612 l 6.448,2.522 c 24.269,9.488 50.068,20.206 44.259,50.211 -5.932,30.646 9.347,31.781 30.287,49.965 14.495,12.587 48.957,58.445 57.239,74.992 10.672,21.314 2.834,46.29 22.888,40.698 6.807,-1.897 13.161,-5.059 19.056,-9.04"
         style="fill:#2e7a83;fill-opacity:1;fill-rule:evenodd;stroke:none"
         transform="matrix(1.3333333,0,0,-1.3333333,0.9368,833.88147)"
         clip-path="url(#clipPath10)" />
      <path
         id="path11"
         d="m 0,0 c 22.809,22.854 19.393,0.541 60.508,53.297 19.823,25.436 53.408,-16.315 69.562,62.328 4.138,20.14 69.789,42.11 52.179,7.723 C 170.872,101.14 150.67,151.216 175.723,72.968 211.231,-37.942 187.22,-13.425 20.406,-14.896 13.757,-14.954 -1.482,-9.502 0,0 m -253.789,18.208 c -14.562,1.844 -70.662,31.921 -58.615,71.408 5.413,17.742 -16.18,25.869 -36.24,44.452 -14.771,13.681 -21.775,82.969 -42.671,54.934 -24.184,-32.443 48.264,-45.029 2.033,-75.567 -31.819,-21.021 35.544,-24.808 3.499,-66.176 -47.042,-60.73 72.597,-52.72 125.098,-28.593 1.757,0.804 5.721,-0.31 6.896,-0.458"
         style="fill:#25616b;fill-opacity:1;fill-rule:evenodd;stroke:none"
         transform="matrix(1.3333333,0,0,-1.3333333,581.7344,777.444)"
         clip-path="url(#clipPath12)" />
      <path
         id="path13"
         d="M 0,0 V -118.012 H -660.742 V -2.378 c 17.746,-6.349 34.705,-11.188 44.18,-11.616 57.727,-0.606 64.76,27.324 142.276,6.798 30.374,-8.04 70.047,3.185 102.784,5.415 36.068,2.455 72.283,4.666 108.207,-2.894 l 4.775,-1.006 c 53.481,-11.133 64.569,8.121 115.662,2.438 54.174,-6.028 56.698,-18.369 116.554,-3.829 C -16.735,-4.748 -8.197,-2.113 0,0"
         style="fill:#f7af59;fill-opacity:1;fill-rule:evenodd;stroke:none"
         transform="matrix(1.3333333,0,0,-1.3333333,881.92573,724.02733)"
         clip-path="url(#clipPath14)" />
      <path
         id="path15"
         d="M 0,0 V -66.705 H -660.742 V 5.413 c 23.928,-11.143 54.637,-22.605 68.377,-23.271 53.529,-0.606 60.051,27.323 131.93,6.796 28.165,-8.04 64.953,3.187 95.309,5.416 33.445,2.455 67.027,4.666 100.339,-2.895 l 4.427,-1.005 c 49.592,-11.133 59.875,8.122 107.251,2.438 50.236,-6.028 52.576,-18.37 108.081,-3.831 C -28.01,-6.479 -14.501,-0.88 0,0"
         style="fill:#f9cc78;fill-opacity:1;fill-rule:evenodd;stroke:none"
         transform="matrix(1.3333333,0,0,-1.3333333,881.92573,792.43613)"
         clip-path="url(#clipPath16)" />
      <path
         id="path17"
         d="m 0,0 c 7.922,0 14.345,-3.459 14.345,-7.723 0,-4.267 -6.423,-7.726 -14.345,-7.726 -7.922,0 -14.344,3.459 -14.344,7.726 C -14.344,-3.459 -7.922,0 0,0 m 155.86,0 c 9.598,0 17.382,-3.211 17.382,-7.173 0,-3.962 -7.784,-7.173 -17.382,-7.173 -9.597,0 -17.377,3.211 -17.377,7.173 0,3.962 7.78,7.173 17.377,7.173 m -307.305,2.757 c 5.028,0 9.104,-2.224 9.104,-4.966 0,-2.742 -4.076,-4.964 -9.104,-4.964 -5.027,0 -9.102,2.222 -9.102,4.964 0,2.742 4.075,4.966 9.102,4.966 m -110.068,4.968 c 8.836,0 15.998,-3.459 15.998,-7.725 0,-4.266 -7.162,-7.725 -15.998,-7.725 -8.837,0 -16,3.459 -16,7.725 0,4.266 7.163,7.725 16,7.725"
         style="fill:#eb9134;fill-opacity:1;fill-rule:evenodd;stroke:none"
         transform="matrix(1.3333333,0,0,-1.3333333,633.4076,767.51307)"
         clip-path="url(#clipPath18)" />
      <path
         id="path19"
         d="m 0,0 c 11.123,0 20.139,-4.568 20.139,-10.206 0,-5.638 -9.016,-10.206 -20.139,-10.206 -11.12,0 -20.136,4.568 -20.136,10.206 C -20.136,-4.568 -11.12,0 0,0"
         style="fill:#f7af59;fill-opacity:1;fill-rule:evenodd;stroke:none"
         transform="matrix(1.3333333,0,0,-1.3333333,496.2136,839.60547)"
         clip-path="url(#clipPath20)" />
      <path
         id="path21"
         d="m 0,0 c 12.796,0 23.172,-4.941 23.172,-11.035 0,-6.093 -10.376,-11.034 -23.172,-11.034 -12.798,0 -23.173,4.941 -23.173,11.034 C -23.173,-4.941 -12.798,0 0,0"
         style="fill:#f7af59;fill-opacity:1;fill-rule:evenodd;stroke:none"
         transform="matrix(1.3333333,0,0,-1.3333333,704.76427,830.0404)"
         clip-path="url(#clipPath22)" />
      <path
         id="path23"
         d="m 0,0 c 11.658,27.976 27.358,46.655 6.715,77.885 -9.809,14.842 -24.627,40.103 -13.431,57.237 6.916,10.583 11.808,18.204 17.75,28.879 l 1.103,0.963 h 14.399 l -1.103,-0.963 C 19.491,153.326 14.599,145.705 7.683,135.122 -3.514,117.988 11.304,92.727 21.113,77.885 41.757,46.655 26.056,27.976 14.398,0 Z"
         style="fill:#448733;fill-opacity:1;fill-rule:evenodd;stroke:none"
         transform="matrix(1.3333333,0,0,-1.3333333,209.10747,837.39973)"
         clip-path="url(#clipPath24)" />
      <path
         id="path25"
         d="m 0,0 c -17.112,1.252 -42.413,27.807 -40.854,51.026 2.686,39.956 10.398,23.5 27.935,50.35 8.328,12.747 1.956,56.226 -8.279,65.29 -0.118,0.105 -15.319,33.571 -2.366,37.061 3.586,0.966 3.809,1.548 6.477,2.615 h 14.398 c -2.668,-1.067 -2.89,-1.649 -6.476,-2.615 -12.954,-3.49 2.247,-36.956 2.366,-37.061 C 3.435,157.602 9.807,114.123 1.479,101.376 -16.059,74.526 -23.771,90.982 -26.455,51.026 -28.015,27.807 -2.714,1.252 14.398,0 Z"
         style="fill:#6fbc3a;fill-opacity:1;fill-rule:evenodd;stroke:none"
         transform="matrix(1.3333333,0,0,-1.3333333,217.1764,836.66667)"
         clip-path="url(#clipPath26)" />
      <path
         id="path27"
         d="m 0,0 c -17.644,28.151 -7.29,32.053 -14.615,53.453 -9.575,27.981 9.602,35.129 30.768,60.926 16.123,19.654 28.853,20.499 3.028,41.726 -7.351,6.042 -15.438,20.668 -14.164,31.48 H -9.381 C -10.656,176.773 -2.569,162.147 4.782,156.105 30.608,134.878 17.878,134.033 1.754,114.379 -19.411,88.582 -38.59,81.434 -29.014,53.453 -21.688,32.053 -32.041,28.151 -14.399,0 Z"
         style="fill:#549d34;fill-opacity:1;fill-rule:evenodd;stroke:none"
         transform="matrix(1.3333333,0,0,-1.3333333,233.25133,835.64187)"
         clip-path="url(#clipPath28)" />
      <path
         id="path29"
         d="m 0,0 c 8.075,0 14.621,-3.211 14.621,-7.171 0,-3.962 -6.546,-7.174 -14.621,-7.174 -8.075,0 -14.621,3.212 -14.621,7.174 C -14.621,-3.211 -8.075,0 0,0"
         style="fill:#f7af59;fill-opacity:1;fill-rule:evenodd;stroke:none"
         transform="matrix(1.3333333,0,0,-1.3333333,55.578133,833.72133)"
         clip-path="url(#clipPath30)" />
      <path
         id="path31"
         d="m 0,0 c -15.811,58.792 -9.739,34.055 -40.702,72.56 -30.052,37.37 9.805,27.526 9.805,70.476 0,18.958 -5.162,55.352 9.238,69.47 3.254,3.191 7.314,5.732 10.756,5.732 H 3.495 c 2.866,0 5.303,-1.761 6.488,-6.379 H -4.415 c -0.236,0.921 -0.522,1.73 -0.852,2.432 -0.689,-0.563 -1.357,-1.16 -1.995,-1.785 -14.399,-14.118 -9.236,-50.512 -9.236,-69.47 0,-42.95 -39.857,-33.106 -9.806,-70.476 C 4.658,34.055 -1.412,58.792 14.398,0 Z"
         style="fill:#549d34;fill-opacity:1;fill-rule:evenodd;stroke:none"
         transform="matrix(1.3333333,0,0,-1.3333333,689.29813,838.69013)"
         clip-path="url(#clipPath32)" />
      <path
         id="path33"
         d="m 0,0 c 10.395,0.918 33.025,15.835 33.702,30.629 1.004,21.982 0.372,35.101 -9.568,55.124 -16.841,33.926 -11.807,32.504 1.939,66.016 7.064,17.223 1.972,31.982 1.466,46.251 -0.982,27.667 0.758,17.979 7.267,37.468 2.802,8.393 -17.111,17.269 -21.156,26.214 -0.495,1.098 -2.181,1.789 -3.168,3.675 h 14.399 c 0.986,-1.886 2.672,-2.577 3.17,-3.675 4.043,-8.945 23.956,-17.821 21.154,-26.214 -6.509,-19.489 -8.251,-9.801 -7.269,-37.468 0.509,-14.269 5.599,-29.028 -1.464,-46.251 C 26.726,118.257 21.691,119.679 38.533,85.753 48.473,65.73 49.104,52.611 48.101,30.629 47.424,15.835 24.793,0.918 14.399,0 Z"
         style="fill:#448733;fill-opacity:1;fill-rule:evenodd;stroke:none"
         transform="matrix(1.3333333,0,0,-1.3333333,681.2044,846.04693)"
         clip-path="url(#clipPath34)" />
      <path
         id="path35"
         d="m 0,0 c 11.097,0.372 34.984,76.204 9.145,100.554 -21.238,20.013 -26.902,18.753 -48.924,34.616 -21.501,15.488 29.664,38.955 41.898,42.121 7.683,1.988 79.865,4.367 51.658,32.912 H 68.178 C 96.382,181.658 24.2,179.279 16.517,177.291 4.283,174.125 -46.882,150.658 -25.381,135.17 -3.358,119.307 2.306,120.567 23.543,100.554 49.383,76.204 25.495,0.372 14.397,0 Z"
         style="fill:#6fbc3a;fill-opacity:1;fill-rule:evenodd;stroke:none"
         transform="matrix(1.3333333,0,0,-1.3333333,686.74093,835.74733)"
         clip-path="url(#clipPath36)" />
      <path
         id="path37"
         d="m 0,0 c 13.254,0 23.999,-5.311 23.999,-11.862 0,-6.551 -10.745,-11.863 -23.999,-11.863 -13.255,0 -23.999,5.312 -23.999,11.863 C -23.999,-5.311 -13.255,0 0,0"
         style="fill:#f7af59;fill-opacity:1;fill-rule:evenodd;stroke:none"
         transform="matrix(1.3333333,0,0,-1.3333333,215.94333,826.36333)"
         clip-path="url(#clipPath38)" />
      <path
         id="path39"
         d="m 0,0 c 8.836,0 15.999,-3.457 15.999,-7.723 0,-4.267 -7.163,-7.726 -15.999,-7.726 -8.837,0 -16,3.459 -16,7.726 C -16,-3.457 -8.837,0 0,0 m 158.619,-61.792 c 11.122,0 20.137,-4.57 20.137,-10.206 0,-5.638 -9.015,-10.206 -20.137,-10.206 -11.121,0 -20.139,4.568 -20.139,10.206 0,5.636 9.018,10.206 20.139,10.206 m 102.894,54.069 c 7.923,0 14.345,-3.459 14.345,-7.724 0,-4.266 -6.422,-7.725 -14.345,-7.725 -7.922,0 -14.344,3.459 -14.344,7.725 0,4.265 6.422,7.724 14.344,7.724 m 53.517,-46.895 c 12.798,0 23.173,-4.941 23.173,-11.035 0,-6.095 -10.375,-11.034 -23.173,-11.034 -12.797,0 -23.172,4.939 -23.172,11.034 0,6.094 10.375,11.035 23.172,11.035 m 102.344,46.895 c 9.597,0 17.377,-3.211 17.377,-7.172 0,-3.962 -7.78,-7.173 -17.377,-7.173 -9.597,0 -17.377,3.211 -17.377,7.173 0,3.961 7.78,7.172 17.377,7.172 M -171.86,-57.379 c 8.075,0 14.621,-3.211 14.621,-7.171 0,-3.962 -6.546,-7.174 -14.621,-7.174 -8.074,0 -14.619,3.212 -14.619,7.174 0,3.96 6.545,7.171 14.619,7.171 m 281.928,52.411 c 5.027,0 9.104,-2.221 9.104,-4.964 0,-2.744 -4.077,-4.965 -9.104,-4.965 -5.027,0 -9.103,2.221 -9.103,4.965 0,2.743 4.076,4.964 9.103,4.964 M -51.586,-51.86 c 13.255,0 24,-5.313 24,-11.863 0,-6.55 -10.745,-11.862 -24,-11.862 -13.255,0 -23.999,5.312 -23.999,11.862 0,6.55 10.744,11.863 23.999,11.863"
         style="fill:#867665;fill-opacity:1;fill-rule:evenodd;stroke:none"
         transform="matrix(1.3333333,0,0,-1.3333333,280.49413,753.16933)"
         clip-path="url(#clipPath40)" />
      <path
         id="path41"
         d="m 0,0 -17.333,-19.871 36.706,-7.983 -38.96,3.13 -2.16,-22.096 -6.746,21.802 -38.04,-5.673 34.792,10.346 -21.351,18.592 28.247,-15.411 z"
         style="fill:#ed0e66;fill-opacity:1;fill-rule:evenodd;stroke:none"
         transform="matrix(1.3333333,0,0,-1.3333333,396.89067,794.6484)"
         clip-path="url(#clipPath42)" />
      <path
         id="path43"
         d="m 0,0 11.007,-7.012 12.179,6.441 -9.138,-7.734 15.281,-4.169 -16.653,2.233 -2.734,-9.019 -1.157,9.113 -16.97,-1.403 15.94,3.4 z"
         style="fill:#ed0e66;fill-opacity:1;fill-rule:evenodd;stroke:none"
         transform="matrix(1.3333333,0,0,-1.3333333,771.4688,772.83333)"
         clip-path="url(#clipPath44)" />
      <path
         id="path45"
         d="m 0,0 c -10.444,0 -18.911,-8.467 -18.911,-18.912 0,-10.444 8.467,-18.91 18.911,-18.91 10.444,0 18.912,8.466 18.912,18.91 C 18.912,-8.467 10.444,0 0,0 m 26.605,8.827 c 4.418,0 8,-3.582 8,-8 0,-4.418 -3.582,-7.999 -8,-7.999 -4.418,0 -7.999,3.581 -7.999,7.999 0,4.418 3.581,8 7.999,8 m 63.173,72.826 c 7.921,0 14.345,-6.422 14.345,-14.343 0,-7.923 -6.424,-14.346 -14.345,-14.346 -7.922,0 -14.345,6.423 -14.345,14.346 0,7.921 6.423,14.343 14.345,14.343 m 22.619,-33.654 c 3.962,0 7.173,-3.212 7.173,-7.173 0,-3.961 -3.211,-7.172 -7.173,-7.172 -3.96,0 -7.171,3.211 -7.171,7.172 0,3.961 3.211,7.173 7.171,7.173 m 20.415,41.93 c 7.311,0 13.241,-5.928 13.241,-13.241 0,-7.313 -5.93,-13.241 -13.241,-13.241 -7.313,0 -13.242,5.928 -13.242,13.241 0,7.313 5.929,13.241 13.242,13.241 M 220.81,14.344 c 12.339,0 22.344,-10.003 22.344,-22.344 0,-12.34 -10.005,-22.345 -22.344,-22.345 -12.34,0 -22.344,10.005 -22.344,22.345 0,12.341 10.004,22.344 22.344,22.344 m -16.552,19.863 c 4.723,0 8.553,-3.83 8.553,-8.553 0,-4.722 -3.83,-8.551 -8.553,-8.551 -4.723,0 -8.55,3.829 -8.55,8.551 0,4.723 3.827,8.553 8.55,8.553 m 42.207,49.102 c 6.704,0 12.137,-5.434 12.137,-12.138 0,-6.703 -5.433,-12.137 -12.137,-12.137 -6.703,0 -12.138,5.434 -12.138,12.137 0,6.704 5.435,12.138 12.138,12.138 M 367.844,-12.69 c 5.788,0 10.482,-4.693 10.482,-10.482 0,-5.789 -4.694,-10.483 -10.482,-10.483 -5.79,0 -10.484,4.694 -10.484,10.483 0,5.789 4.694,10.482 10.484,10.482 m -10.206,29.793 c 5.94,0 10.758,-4.817 10.758,-10.759 0,-5.942 -4.818,-10.758 -10.758,-10.758 -5.944,0 -10.758,4.816 -10.758,10.758 0,5.942 4.814,10.759 10.758,10.759 m 17.102,22.62 c 5.942,0 10.758,-4.816 10.758,-10.758 0,-5.942 -4.816,-10.759 -10.758,-10.759 -5.943,0 -10.758,4.817 -10.758,10.759 0,5.942 4.815,10.758 10.758,10.758 m 7.518,-27.309 c 3.39,0 6.139,-2.749 6.139,-6.138 0,-3.391 -2.749,-6.139 -6.139,-6.139 -3.391,0 -6.139,2.748 -6.139,6.139 0,3.389 2.748,6.138 6.139,6.138 m 41.998,132.825 c 2.895,0 5.243,-2.346 5.243,-5.242 0,-2.893 -2.348,-5.241 -5.243,-5.241 -2.893,0 -5.24,2.348 -5.24,5.241 0,2.896 2.347,5.242 5.24,5.242 m 49.931,-34.206 c 11.885,0 21.518,-9.633 21.518,-21.517 0,-11.884 -9.633,-21.517 -21.518,-21.517 -11.883,0 -21.517,9.633 -21.517,21.517 0,11.884 9.634,21.517 21.517,21.517 m -39.448,-8.276 c 5.638,0 10.206,-4.57 10.206,-10.207 0,-5.636 -4.568,-10.206 -10.206,-10.206 -5.635,0 -10.206,4.57 -10.206,10.206 0,5.637 4.571,10.207 10.206,10.207 M -9.669,121.791 c 3.961,0 7.172,-3.211 7.172,-7.172 0,-3.961 -3.211,-7.172 -7.172,-7.172 -3.961,0 -7.172,3.211 -7.172,7.172 0,3.961 3.211,7.172 7.172,7.172 m -0.139,-18.758 c 6.171,0 11.173,-5.002 11.173,-11.172 0,-6.17 -5.002,-11.172 -11.173,-11.172 -6.17,0 -11.171,5.002 -11.171,11.172 0,6.17 5.001,11.172 11.171,11.172 M -7.6,71.585 c 3.123,0 5.654,-2.531 5.654,-5.654 0,-3.123 -2.531,-5.655 -5.654,-5.655 -3.124,0 -5.655,2.532 -5.655,5.655 0,3.123 2.531,5.654 5.655,5.654 M 20.812,-36.414 c 5.79,0 10.483,-4.693 10.483,-10.482 0,-5.789 -4.693,-10.483 -10.483,-10.483 -5.789,0 -10.481,4.694 -10.481,10.483 0,5.789 4.692,10.482 10.481,10.482"
         style="fill:#96dce2;fill-opacity:1;fill-rule:evenodd;stroke:none"
         transform="matrix(1.3333333,0,0,-1.3333333,166.862,251.66013)"
         clip-path="url(#clipPath46)" />
      <path
         id="path47"
         d="m 0,0 c -6.399,0 -11.586,-5.186 -11.586,-11.588 0,-6.396 5.187,-11.585 11.586,-11.585 6.399,0 11.587,5.189 11.587,11.585 C 11.587,-5.186 6.399,0 0,0 m -15.311,-18.759 c 3.733,0 6.759,-3.026 6.759,-6.758 0,-3.732 -3.026,-6.758 -6.759,-6.758 -3.732,0 -6.757,3.026 -6.757,6.758 0,3.732 3.025,6.758 6.757,6.758 m 246.618,32.552 c 2.818,0 5.102,-2.285 5.102,-5.104 0,-2.818 -2.284,-5.103 -5.102,-5.103 -2.818,0 -5.105,2.285 -5.105,5.103 0,2.819 2.287,5.104 5.105,5.104 M 215.445,-2.482 c 8.531,0 15.447,-6.918 15.447,-15.449 0,-8.531 -6.916,-15.449 -15.447,-15.449 -8.533,0 -15.449,6.918 -15.449,15.449 0,8.531 6.916,15.449 15.449,15.449 m 1.931,-35.586 c 4.723,0 8.552,-3.829 8.552,-8.551 0,-4.724 -3.829,-8.553 -8.552,-8.553 -4.724,0 -8.553,3.829 -8.553,8.553 0,4.722 3.829,8.551 8.553,8.551 m -15.724,54.343 c 4.876,0 8.827,-3.953 8.827,-8.829 0,-4.874 -3.951,-8.825 -8.827,-8.825 -4.876,0 -8.827,3.951 -8.827,8.825 0,4.876 3.951,8.829 8.827,8.829 m 120.275,2.759 c 3.351,0 6.068,-2.718 6.068,-6.071 0,-3.351 -2.717,-6.066 -6.068,-6.066 -3.354,0 -6.071,2.715 -6.071,6.066 0,3.353 2.717,6.071 6.071,6.071 m -9.38,-13.242 c 7.009,0 12.689,-5.681 12.689,-12.688 0,-7.01 -5.68,-12.691 -12.689,-12.691 -7.008,0 -12.689,5.681 -12.689,12.691 0,7.007 5.681,12.688 12.689,12.688 M -16,15.999 c 2.438,0 4.414,-1.976 4.414,-4.413 0,-2.438 -1.976,-4.415 -4.414,-4.415 -2.437,0 -4.414,1.977 -4.414,4.415 0,2.437 1.977,4.413 4.414,4.413"
         style="fill:#84d6da;fill-opacity:1;fill-rule:evenodd;stroke:none"
         transform="matrix(1.3333333,0,0,-1.3333333,198.47787,438.32293)"
         clip-path="url(#clipPath48)" />
      <path
         id="path49"
         d="m 0,0 c 6.55,0 11.86,-5.31 11.86,-11.861 0,-6.551 -5.31,-11.862 -11.86,-11.862 -6.552,0 -11.862,5.311 -11.862,11.862 C -11.862,-5.31 -6.552,0 0,0 m -144.55,-12.688 c -5.029,0 -9.104,-4.076 -9.104,-9.105 0,-5.026 4.075,-9.102 9.104,-9.102 5.027,0 9.102,4.076 9.102,9.102 0,5.029 -4.075,9.105 -9.102,9.105 m -6.343,36.412 c 4.263,0 7.722,-3.459 7.722,-7.724 0,-4.266 -3.459,-7.725 -7.722,-7.725 -4.268,0 -7.727,3.459 -7.727,7.725 0,4.265 3.459,7.724 7.727,7.724 m -8.276,-24.828 c 3.654,0 6.62,-2.962 6.62,-6.619 0,-3.657 -2.966,-6.622 -6.62,-6.622 -3.657,0 -6.622,2.965 -6.622,6.622 0,3.657 2.965,6.619 6.622,6.619 M 11.86,32 c 4.876,0 8.827,-3.951 8.827,-8.827 0,-4.876 -3.951,-8.827 -8.827,-8.827 -4.874,0 -8.827,3.951 -8.827,8.827 0,4.876 3.953,8.827 8.827,8.827"
         style="fill:#54c6c8;fill-opacity:1;fill-rule:evenodd;stroke:none"
         transform="matrix(1.3333333,0,0,-1.3333333,511.8528,612.29947)"
         clip-path="url(#clipPath50)" />
      <path
         id="path51"
         d="m 0,0 c -4.76,-3.69 -7.294,-5.334 -8.446,-22.478 -0.726,-10.811 7.238,-22.697 16.011,-29.229 0.57,1.243 1.138,2.462 1.698,3.662 -9.348,16.533 -3.302,19.82 -8.101,33.839 C -0.811,-8.441 -1.038,-3.942 0,0 m 14.358,-36.035 c 3.209,9.471 3.503,18.871 -4.635,31.184 l -0.256,0.387 c -0.047,-2.849 0.5,-6.033 1.768,-9.742 3.35,-9.788 1.414,-14.344 3.123,-21.829 m -9.133,-21 c 0.155,0.373 0.312,0.745 0.47,1.113 -11.094,3.635 -24.729,19.443 -23.787,33.444 1.798,26.771 6.964,15.743 18.714,33.731 0.053,0.083 0.104,0.169 0.154,0.252 -3.011,7.593 -4.209,15.629 -0.051,21.992 0.525,0.805 1.033,1.583 1.526,2.342 -1.333,8.452 -3.972,16.324 -7.175,19.161 -0.079,0.07 -10.264,22.493 -1.585,24.83 2.403,0.648 2.552,1.037 4.34,1.753 H 7.478 C 5.689,80.867 5.541,80.478 3.138,79.83 -5.541,77.493 4.644,55.07 4.723,55 c 1.693,-1.5 3.229,-4.406 4.496,-8.061 1.107,1.86 2.222,3.793 3.398,5.907 l 0.738,0.645 h 9.648 l -0.739,-0.645 c -3.53,-6.342 -6.506,-11.074 -10.365,-17.007 1.045,-6.627 1.286,-13.61 0.369,-18.806 3.201,3.278 6.767,6.934 10.418,11.384 11.28,13.75 20.186,14.34 2.119,29.19 -5.143,4.227 -10.801,14.46 -9.909,22.022 H 24.969 C 24.077,72.067 29.734,61.834 34.877,57.607 52.944,42.757 44.039,42.167 32.759,28.417 24.717,18.614 17.086,12.66 12.864,6.13 c 2.074,-4.09 4.453,-7.876 6.505,-10.981 11.395,-17.239 6.263,-28.769 -0.265,-42.778 0.693,-1.244 1.472,-2.564 2.355,-3.972 h -4.197 c -0.645,-1.406 -1.29,-2.845 -1.92,-4.321 1.233,-0.404 2.436,-0.661 3.584,-0.744 h -3.9 l -0.155,-0.369 z"
         style="fill:#2e7a83;fill-opacity:1;fill-rule:evenodd;stroke:none"
         transform="matrix(1.3333333,0,0,-1.3333333,82.990267,416.90107)"
         clip-path="url(#clipPath52)" />
      <path
         id="path53"
         d="m 0,0 c -8.251,30.685 -5.083,17.776 -21.241,37.869 -15.686,19.506 5.116,14.368 5.116,36.784 0,9.894 -2.693,28.889 4.82,36.256 1.7,1.666 3.819,2.992 5.615,2.992 h 7.514 c 1.496,0 2.768,-0.919 3.387,-3.329 h -7.514 c -0.124,0.481 -0.273,0.902 -0.445,1.268 -0.359,-0.291 -0.708,-0.605 -1.04,-0.931 C -11.305,103.542 -8.61,84.547 -8.61,74.653 -8.61,52.237 -29.411,57.375 -13.727,37.869 2.433,17.776 -0.736,30.685 7.516,0 Z"
         style="fill:#2e7a83;fill-opacity:1;fill-rule:evenodd;stroke:none"
         transform="matrix(1.3333333,0,0,-1.3333333,769.89587,468.77213)"
         clip-path="url(#clipPath54)" />
      <path
         id="path55"
         d="m 0,0 c 5.424,0.478 17.236,8.264 17.59,15.984 0.524,11.473 0.194,18.319 -4.995,28.771 -8.789,17.705 -6.161,16.962 1.013,34.454 3.685,8.989 1.03,16.692 0.763,24.139 -0.512,14.439 0.397,9.383 3.793,19.555 1.464,4.38 -8.929,9.011 -11.039,13.681 -0.259,0.573 -1.141,0.934 -1.654,1.917 h 7.514 c 0.515,-0.983 1.395,-1.344 1.654,-1.917 2.11,-4.67 12.504,-9.301 11.042,-13.681 -3.399,-10.172 -4.307,-5.116 -3.793,-19.555 C 22.151,95.901 24.81,88.198 21.122,79.209 13.947,61.717 11.32,62.46 20.109,44.755 25.298,34.303 25.628,27.457 25.104,15.984 24.75,8.264 12.94,0.478 7.515,0 Z"
         style="fill:#2e7a83;fill-opacity:1;fill-rule:evenodd;stroke:none"
         transform="matrix(1.3333333,0,0,-1.3333333,765.6732,472.60933)"
         clip-path="url(#clipPath56)" />
      <path
         id="path57"
         d="m 0,0 c 5.792,0.194 18.26,39.773 4.773,52.482 -11.082,10.444 -14.04,9.786 -25.534,18.065 -11.221,8.083 15.483,20.331 21.867,21.982 4.011,1.038 41.683,2.281 26.961,17.179 h 7.517 C 50.304,94.81 12.631,93.567 8.621,92.529 2.236,90.878 -24.468,78.63 -13.245,70.547 -1.753,62.268 1.205,62.926 12.288,52.482 25.773,39.773 13.307,0.194 7.515,0 Z"
         style="fill:#2e7a83;fill-opacity:1;fill-rule:evenodd;stroke:none"
         transform="matrix(1.3333333,0,0,-1.3333333,768.5612,467.23573)"
         clip-path="url(#clipPath58)" />
      <path
         id="path59"
         d="m 0,0 13.554,-15.536 -28.703,-6.245 30.466,2.45 1.688,-17.281 5.275,17.051 29.747,-4.438 -27.206,8.091 16.696,14.536 -22.089,-12.049 z"
         style="fill:#ed0e66;fill-opacity:1;fill-rule:evenodd;stroke:none"
         transform="matrix(1.3333333,0,0,-1.3333333,59.042933,757.77213)"
         clip-path="url(#clipPath60)" />
    </g>
  </g>
</svg>
